<!-- Generated by IcoMoon.io -->
<svg version="1.1" xmlns="http://www.w3.org/2000/svg" width="32" height="32" viewBox="0 0 32 32">
<title>googleplus</title>
<path d="M10.771 15.146v2.902l6.935-0.003c-0.213 1.601-0.752 2.772-1.573 3.593-1.011 1.011-2.59 2.125-5.363 2.125-4.274 0-7.617-3.444-7.617-7.718s3.343-7.718 7.617-7.718c2.306 0 3.99 0.906 5.233 2.072l2.048-2.048c-1.733-1.656-4.040-2.926-7.278-2.926-5.852-0.001-10.774 4.767-10.774 10.62s4.921 10.62 10.775 10.62c3.158 0 5.541-1.037 7.407-2.979 1.918-1.918 2.514-4.61 2.514-6.787 0-0.648-0.049-1.246-0.145-1.752h-9.779z"></path>
<path d="M29.060 15.154v-3.115h-2.797v3.115h-2.941v2.72h2.941v3.156h2.797v-3.156h2.94v-2.72z"></path>
</svg>
