<?xml version="1.0" encoding="utf-8"?>
<!-- Generator: Adobe Illustrator 20.0.0, SVG Export Plug-In . SVG Version: 6.00 Build 0)  -->
<svg version="1.1" id="Layer_1" xmlns="http://www.w3.org/2000/svg" xmlns:xlink="http://www.w3.org/1999/xlink" x="0px" y="0px"
	 viewBox="0 0 40.32 40.32" style="enable-background:new 0 0 40.32 40.32;" xml:space="preserve">
<style type="text/css">
	.st0{fill:#FFFFFF;}
</style>
<g>
	<path class="st0" d="M13.572,19.084v3.656l8.738-0.004c-0.268,2.017-0.948,3.493-1.982,4.527c-1.274,1.274-3.264,2.677-6.757,2.677
		c-5.385,0-9.597-4.34-9.597-9.725s4.212-9.725,9.597-9.725c2.906,0,5.028,1.142,6.594,2.611l2.58-2.58
		c-2.184-2.086-5.09-3.687-9.17-3.687C6.201,6.833,0,12.84,0,20.215s6.201,13.381,13.576,13.381c3.979,0,6.982-1.306,9.333-3.753
		c2.417-2.417,3.167-5.809,3.167-8.552c0-0.816-0.062-1.57-0.183-2.207H13.572z"/>
	<polygon class="st0" points="36.616,19.094 36.616,15.169 33.092,15.169 33.092,19.094 29.386,19.094 29.386,22.521 33.092,22.521 
		33.092,26.498 36.616,26.498 36.616,22.521 40.32,22.521 40.32,19.094 	"/>
</g>
</svg>
