<?xml version="1.0" encoding="utf-8"?>
<!-- Generator: Adobe Illustrator 19.2.1, SVG Export Plug-In . SVG Version: 6.00 Build 0)  -->
<svg version="1.1" id="Layer_1" xmlns="http://www.w3.org/2000/svg" xmlns:xlink="http://www.w3.org/1999/xlink" x="0px" y="0px"
	 viewBox="0 0 20 20" style="enable-background:new 0 0 20 20;" xml:space="preserve">
<style type="text/css">
	.st0{fill:#9F9999;}
</style>
<g>
	<path class="st0" d="M17.1,17.1c-2,2-4.3,2.9-7.1,2.9s-5.1-1-7.1-2.9S0,12.7,0,10s1-5.1,2.9-7.1S7.2,0,10,0s5.1,1,7.1,2.9
		S20,7.2,20,10S19,15.1,17.1,17.1z M15.7,4.3C14.1,2.8,12.2,2,10,2S5.9,2.8,4.3,4.3S2,7.8,2,10s0.8,4.1,2.4,5.7S7.8,18,10,18
		s4.1-0.8,5.7-2.4S18,12.2,18,10S17.2,5.9,15.7,4.3z M11,15H9V9h2V15z M11,7H9V5h2V7z"/>
</g>
</svg>
