<?xml version="1.0" encoding="utf-8"?>
<!-- Generator: Adobe Illustrator 20.0.0, SVG Export Plug-In . SVG Version: 6.00 Build 0)  -->
<svg version="1.1" id="Layer_1" xmlns="http://www.w3.org/2000/svg" xmlns:xlink="http://www.w3.org/1999/xlink" x="0px" y="0px"
	 viewBox="0 0 40.32 40.32" style="enable-background:new 0 0 40.32 40.32;" xml:space="preserve">
<style type="text/css">
	.st0{fill:#FFFFFF;}
</style>
<g>
	<rect x="2.341" y="10.749" class="st0" width="7.967" height="29.571"/>
	<path class="st0" d="M26.677,10.749c-2.93,0-4.385,1.391-5.604,2.339v-2.339h-8.034V40.32h8.034V21.709
		c0,0-0.302-3.716,4.146-3.716c2.678,0,3.911,1.525,3.911,3.716V40.32h8.454V21.971C37.584,11.891,29.473,10.749,26.677,10.749
		L26.677,10.749z"/>
	<path class="st0" d="M10.307,4.029c0,2.231-1.798,4.029-4.029,4.029c-2.218,0-4.029-1.798-4.029-4.029C2.25,1.811,4.061,0,6.279,0
		C8.51,0,10.307,1.811,10.307,4.029L10.307,4.029z"/>
</g>
</svg>
