<!-- Generated by IcoMoon.io -->
<svg version="1.1" xmlns="http://www.w3.org/2000/svg" width="32" height="32" viewBox="0 0 32 32">
<title>linkedin</title>
<path d="M1.858 8.531h6.323v23.469h-6.323v-23.469z"></path>
<path d="M21.172 8.531c-2.325 0-3.48 1.104-4.448 1.856v-1.856h-6.376v23.469h6.376v-14.771c0 0-0.24-2.949 3.29-2.949 2.125 0 3.104 1.21 3.104 2.949v14.771h6.71v-14.563c0-8-6.437-8.906-8.656-8.906v0z"></path>
<path d="M8.18 3.198c0 1.771-1.427 3.198-3.198 3.198-1.76 0-3.198-1.427-3.198-3.198 0.001-1.76 1.438-3.198 3.198-3.198 1.771 0 3.197 1.437 3.197 3.198v0z"></path>
</svg>
