<?xml version="1.0" encoding="UTF-8" standalone="no"?>
<!DOCTYPE svg PUBLIC "-//W3C//DTD SVG 1.1//EN" "http://www.w3.org/Graphics/SVG/1.1/DTD/svg11.dtd">
<svg viewBox="0 0 1580 1580" version="1.1" xmlns="http://www.w3.org/2000/svg" xmlns:xlink="http://www.w3.org/1999/xlink" xml:space="preserve" style="fill-rule:evenodd;clip-rule:evenodd;stroke-linejoin:round;stroke-miterlimit:1.41421;">
    <g transform="matrix(1,0,0,1,-293.251,-104.514)">
        <g transform="matrix(28.9708,0,0,28.9708,-8202.46,-2923.34)">
            <path d="M320.509,104.514C305.457,104.514 293.251,116.717 293.251,131.772C293.251,142.934 299.962,152.522 309.568,156.738C309.491,154.832 309.554,152.547 310.041,150.479C310.566,148.264 313.549,135.623 313.549,135.623C313.549,135.623 312.676,133.885 312.676,131.313C312.676,127.276 315.021,124.259 317.937,124.259C320.414,124.259 321.612,126.119 321.612,128.349C321.612,130.84 320.022,134.569 319.206,138.021C318.522,140.913 320.656,143.27 323.503,143.27C328.669,143.27 332.147,136.64 332.147,128.779C332.147,122.808 328.125,118.336 320.807,118.336C312.54,118.336 307.388,124.5 307.388,131.387C307.388,133.763 308.089,135.438 309.186,136.734C309.69,137.331 309.761,137.568 309.575,138.252C309.449,138.757 309.147,139.961 309.021,140.439C308.839,141.133 308.282,141.378 307.658,141.123C303.849,139.57 302.075,135.399 302.075,130.71C302.075,122.969 308.604,113.682 321.557,113.682C331.961,113.682 338.814,121.213 338.814,129.298C338.814,139.99 332.866,147.978 324.104,147.978C321.16,147.978 318.392,146.386 317.446,144.582C317.446,144.582 315.862,150.861 315.529,152.074C314.951,154.173 313.819,156.276 312.785,157.913C315.234,158.635 317.825,159.03 320.509,159.03C335.561,159.03 347.764,146.828 347.764,131.772C347.764,116.717 335.561,104.514 320.509,104.514Z" style="fill:rgb(254,254,254);fill-rule:nonzero;"/>
        </g>
    </g>
</svg>
