<!-- Generated by IcoMoon.io -->
<svg version="1.1" xmlns="http://www.w3.org/2000/svg" width="32" height="32" viewBox="0 0 32 32">
<title>pinterest</title>
<path d="M15.994 0c-8.832 0-15.994 7.16-15.994 15.994 0 6.549 3.938 12.175 9.574 14.649-0.045-1.118-0.008-2.459 0.278-3.672 0.308-1.3 2.058-8.717 2.058-8.717s-0.512-1.020-0.512-2.529c0-2.369 1.376-4.139 3.087-4.139 1.453 0 2.156 1.091 2.156 2.4 0 1.462-0.933 3.65-1.412 5.675-0.401 1.697 0.851 3.080 2.521 3.080 3.031 0 5.072-3.89 5.072-8.503 0-3.504-2.36-6.127-6.654-6.127-4.851 0-7.874 3.617-7.874 7.658 0 1.394 0.411 2.377 1.055 3.137 0.296 0.35 0.337 0.489 0.228 0.891-0.074 0.296-0.251 1.003-0.325 1.283-0.107 0.407-0.434 0.551-0.8 0.401-2.235-0.911-3.276-3.359-3.276-6.11 0-4.542 3.831-9.991 11.431-9.991 6.105 0 10.126 4.419 10.126 9.163 0 6.274-3.49 10.961-8.631 10.961-1.727 0-3.352-0.934-3.907-1.993 0 0-0.929 3.684-1.125 4.396-0.339 1.232-1.003 2.466-1.61 3.426 1.437 0.424 2.957 0.655 4.532 0.655 8.832 0 15.992-7.16 15.992-15.994s-7.16-15.994-15.992-15.994z"></path>
</svg>
