<?xml version="1.0" encoding="utf-8"?>
<!-- Generator: Adobe Illustrator 20.0.0, SVG Export Plug-In . SVG Version: 6.00 Build 0)  -->
<svg version="1.1" id="Layer_1" xmlns="http://www.w3.org/2000/svg" xmlns:xlink="http://www.w3.org/1999/xlink" x="0px" y="0px"
	 viewBox="0 0 40.32 40.32" style="enable-background:new 0 0 40.32 40.32;" xml:space="preserve">
<style type="text/css">
	.st0{fill:#FFFFFF;}
</style>
<g>
	<path class="st0" d="M40.32,7.888c-1.587,0.682-3.174,1.108-4.759,1.28c1.791-1.075,3.002-2.593,3.633-4.554
		c-1.639,0.972-3.387,1.636-5.245,1.995C32.312,4.871,30.3,4,27.911,4c-2.284,0-4.233,0.806-5.846,2.418
		c-1.612,1.611-2.416,3.56-2.416,5.844c0,0.615,0.067,1.245,0.204,1.894c-3.378-0.17-6.546-1.02-9.505-2.545
		c-2.959-1.527-5.47-3.56-7.534-6.102c-0.75,1.279-1.125,2.669-1.125,4.17c0,1.415,0.332,2.729,0.998,3.94
		c0.665,1.21,1.561,2.191,2.686,2.941c-1.331-0.051-2.576-0.4-3.735-1.049v0.102c0,1.995,0.627,3.747,1.88,5.258
		c1.254,1.51,2.837,2.461,4.745,2.852c-0.716,0.188-1.441,0.282-2.174,0.282c-0.477,0-0.998-0.043-1.561-0.127
		c0.529,1.654,1.501,3.014,2.916,4.08c1.417,1.066,3.019,1.616,4.81,1.65c-3.001,2.353-6.421,3.531-10.258,3.531
		c-0.734,0-1.4-0.034-1.996-0.103c3.838,2.473,8.068,3.709,12.689,3.709c2.933,0,5.688-0.464,8.263-1.393
		c2.576-0.929,4.776-2.174,6.6-3.735c1.825-1.561,3.399-3.356,4.721-5.386c1.322-2.029,2.306-4.147,2.954-6.357
		c0.648-2.209,0.972-4.422,0.972-6.639c0-0.477-0.009-0.836-0.026-1.075C37.795,10.984,39.176,9.56,40.32,7.888L40.32,7.888z"/>
</g>
</svg>
