<!-- Generated by IcoMoon.io -->
<svg version="1.1" xmlns="http://www.w3.org/2000/svg" width="32" height="32" viewBox="0 0 32 32">
<title>twitter</title>
<path d="M32 6.26c-1.26 0.541-2.519 0.879-3.777 1.016 1.421-0.853 2.383-2.058 2.883-3.614-1.301 0.771-2.688 1.298-4.163 1.583-1.299-1.379-2.896-2.071-4.792-2.071-1.813 0-3.36 0.64-4.64 1.919s-1.917 2.825-1.917 4.638c0 0.488 0.053 0.988 0.162 1.503-2.681-0.135-5.195-0.81-7.544-2.020-2.348-1.212-4.341-2.825-5.979-4.843-0.595 1.015-0.893 2.118-0.893 3.31 0 1.123 0.264 2.166 0.792 3.127s1.239 1.739 2.132 2.334c-1.056-0.040-2.044-0.317-2.964-0.833v0.081c0 1.583 0.498 2.974 1.492 4.173s2.252 1.953 3.766 2.264c-0.568 0.149-1.144 0.224-1.725 0.224-0.379 0-0.792-0.034-1.239-0.101 0.42 1.313 1.191 2.392 2.314 3.238 1.125 0.846 2.396 1.283 3.817 1.31-2.382 1.867-5.096 2.802-8.141 2.802-0.583 0-1.111-0.027-1.584-0.082 3.046 1.963 6.403 2.944 10.071 2.944 2.328 0 4.514-0.368 6.558-1.106s3.79-1.725 5.238-2.964c1.448-1.239 2.698-2.663 3.747-4.275s1.83-3.291 2.344-5.045c0.514-1.753 0.771-3.51 0.771-5.269 0-0.379-0.007-0.663-0.021-0.853 1.287-0.933 2.383-2.063 3.291-3.39v0z"></path>
</svg>
