<?xml version="1.0" encoding="UTF-8" standalone="no"?>
<!DOCTYPE svg PUBLIC "-//W3C//DTD SVG 1.1//EN" "http://www.w3.org/Graphics/SVG/1.1/DTD/svg11.dtd">
<svg viewBox="0 0 100 100" version="1.1" xmlns="http://www.w3.org/2000/svg" xmlns:xlink="http://www.w3.org/1999/xlink" xml:space="preserve" style="fill-rule:evenodd;clip-rule:evenodd;stroke-linejoin:round;stroke-miterlimit:1.41421;">
    <g transform="matrix(0.856157,0,0,0.856157,0,13.3029)">
        <path d="M116.734,32.509C116.691,30.161 116.508,27.196 116.18,23.61C115.855,20.028 115.387,16.821 114.781,13.997C114.086,10.825 112.574,8.153 110.25,5.981C107.926,3.809 105.223,2.548 102.133,2.2C92.488,1.114 77.91,0.571 58.398,0.571C38.891,0.571 24.312,1.114 14.664,2.2C11.578,2.548 8.887,3.809 6.582,5.981C4.281,8.153 2.781,10.825 2.086,13.997C1.434,16.821 0.945,20.028 0.621,23.61C0.293,27.196 0.109,30.161 0.066,32.509C0.023,34.856 0,38.114 0,42.286C0,46.458 0.023,49.716 0.066,52.063C0.109,54.411 0.293,57.376 0.621,60.958C0.945,64.544 1.41,67.751 2.02,70.575C2.715,73.747 4.227,76.419 6.551,78.591C8.875,80.763 11.582,82.024 14.664,82.372C24.312,83.458 38.891,84.001 58.398,84.001C77.91,84.001 92.488,83.458 102.133,82.372C105.219,82.024 107.914,80.763 110.219,78.591C112.52,76.419 114.02,73.743 114.715,70.575C115.367,67.751 115.855,64.544 116.18,60.958C116.508,57.376 116.691,54.407 116.734,52.063C116.777,49.716 116.801,46.458 116.801,42.286C116.801,38.114 116.777,34.856 116.734,32.509ZM81.473,45.806L48.102,66.661C47.492,67.095 46.754,67.313 45.887,67.313C45.234,67.313 44.562,67.138 43.867,66.794C42.434,66.009 41.715,64.794 41.715,63.142L41.715,21.431C41.715,19.778 42.434,18.563 43.867,17.778C45.344,16.997 46.754,17.04 48.102,17.911L81.473,38.767C82.777,39.505 83.43,40.677 83.43,42.286C83.43,43.895 82.777,45.067 81.473,45.806Z" style="fill:white;fill-rule:nonzero;"/>
    </g>
</svg>
