<!-- Generated by IcoMoon.io -->
<svg version="1.1" xmlns="http://www.w3.org/2000/svg" width="32" height="32" viewBox="0 0 32 32">
<title>youtube</title>
<path d="M31.982 13.163c-0.012-0.643-0.062-1.456-0.152-2.438-0.089-0.981-0.217-1.86-0.383-2.634-0.19-0.869-0.605-1.601-1.241-2.196s-1.377-0.941-2.224-1.036c-2.642-0.298-6.636-0.446-11.982-0.446-5.344 0-9.339 0.149-11.982 0.446-0.845 0.095-1.583 0.441-2.214 1.036-0.63 0.595-1.041 1.327-1.232 2.196-0.179 0.774-0.313 1.652-0.401 2.634-0.090 0.982-0.14 1.795-0.152 2.438s-0.018 1.536-0.018 2.679 0.006 2.036 0.018 2.679c0.012 0.643 0.062 1.456 0.152 2.437 0.089 0.982 0.216 1.861 0.383 2.635 0.19 0.869 0.605 1.601 1.241 2.196s1.378 0.941 2.223 1.036c2.643 0.298 6.637 0.446 11.982 0.446 5.346 0 9.34-0.149 11.982-0.446 0.845-0.095 1.584-0.441 2.215-1.036 0.63-0.595 1.041-1.328 1.232-2.196 0.179-0.774 0.312-1.652 0.401-2.635 0.090-0.981 0.14-1.795 0.152-2.437s0.018-1.536 0.018-2.679-0.007-2.036-0.018-2.679zM22.321 16.806l-9.143 5.714c-0.167 0.119-0.369 0.179-0.607 0.179-0.179 0-0.363-0.048-0.553-0.142-0.393-0.215-0.59-0.548-0.59-1.001v-11.428c0-0.453 0.197-0.786 0.59-1.001 0.405-0.214 0.791-0.202 1.16 0.036l9.143 5.714c0.357 0.202 0.536 0.523 0.536 0.964s-0.179 0.762-0.536 0.964z"></path>
</svg>
